<svg xmlns="http://www.w3.org/2000/svg" viewBox="0 0 1691.27 334.87"><defs><style>.cls-1{fill:#fff;}</style></defs><title>1Asset 1</title><g id="Layer_2" data-name="Layer 2"><g id="Layer_1-2" data-name="Layer 1"><polygon class="cls-1" points="1268.17 101.35 1305.61 101.35 1305.61 121.53 1343.03 121.53 1343.03 83.75 1305.61 83.75 1305.61 64.86 1268.17 64.86 1230.75 64.86 1193.31 64.86 1193.31 101.35 1230.75 101.35 1268.17 101.35"/><rect class="cls-1" x="1155.9" y="101.35" width="37.44" height="39.06"/><path class="cls-1" d="M175.79,71a41,41,0,0,0-21.92-6.07H43.49A40.32,40.32,0,0,0,21.92,71,47.29,47.29,0,0,0,6,87a41.37,41.37,0,0,0-6,21.77v28.36a42,42,0,0,0,6,22.12,45.81,45.81,0,0,0,15.9,15.86A41.17,41.17,0,0,0,43.49,181H152.88a7.45,7.45,0,0,1,5.69,2.54,8.44,8.44,0,0,1,2.34,5.9V215.8a8.48,8.48,0,0,1-2.34,5.91,7.48,7.48,0,0,1-5.69,2.54H44.48a8,8,0,0,1-5.85-2.54,8.16,8.16,0,0,1-2.52-5.91v-4.05H0v5.05a41.37,41.37,0,0,0,6,21.77,47.29,47.29,0,0,0,15.9,16,40.32,40.32,0,0,0,21.57,6.07H153.87a41,41,0,0,0,21.92-6.07,45.73,45.73,0,0,0,15.72-16,42.09,42.09,0,0,0,5.86-21.77V188.44a42.79,42.79,0,0,0-5.86-22.12,44.25,44.25,0,0,0-15.72-15.86,41.89,41.89,0,0,0-21.92-5.91H44.48A8,8,0,0,1,38.63,142a8.13,8.13,0,0,1-2.52-5.9V109.77a8.15,8.15,0,0,1,2.52-5.91,8,8,0,0,1,5.85-2.54h108.4a7.48,7.48,0,0,1,5.69,2.54,8.47,8.47,0,0,1,2.34,5.91v4h36.46v-5A42.16,42.16,0,0,0,191.51,87,45.89,45.89,0,0,0,175.79,71Z"/><path class="cls-1" d="M400.59,71a41,41,0,0,0-21.92-6.07H268.29A40.39,40.39,0,0,0,246.72,71a47.29,47.29,0,0,0-15.9,16,41.37,41.37,0,0,0-6,21.77V223.36h36.11V181H422.17V108.74A42.16,42.16,0,0,0,416.31,87,46.06,46.06,0,0,0,400.59,71Zm-14.88,76H260.94V109.8a8.13,8.13,0,0,1,2.52-5.91,8,8,0,0,1,5.85-2.54h108.4a7.46,7.46,0,0,1,5.68,2.54,8.42,8.42,0,0,1,2.35,5.91v37.12Z"/><rect class="cls-1" x="644.14" y="0.77" width="36.11" height="36.47"/><polygon class="cls-1" points="680.28 64.89 644.14 64.89 644.14 64.89 620.75 64.89 620.75 101.35 644.14 101.35 644.14 260.65 680.28 260.65 680.28 101.35 680.34 101.35 680.34 64.89 680.28 64.89"/><path class="cls-1" d="M1092.92,215.71a8.65,8.65,0,0,1-8.37,8.45H976.15a7.91,7.91,0,0,1-2.55-.4,8.3,8.3,0,0,1-3.31-2.11V64.86H934.15V223.3h36.14v37.33c63.12.22,108.71,0,115.24,0a42.31,42.31,0,0,0,14.43-2.46,40.35,40.35,0,0,0,7.49-3.62,46,46,0,0,0,15.73-16,42.15,42.15,0,0,0,5.85-21.77V64.86h-36.14V215.71Z"/><path class="cls-1" d="M1338,146.52a43.36,43.36,0,0,0-22.71-6.11h-122v37.78h120.93a7.73,7.73,0,0,1,5.88,2.63,8.74,8.74,0,0,1,2.43,6.1V214.2a8.71,8.71,0,0,1-2.43,6.11,7.75,7.75,0,0,1-5.88,2.62H1202a8.27,8.27,0,0,1-6-2.62,8.48,8.48,0,0,1-2.6-6.11V210h-37.44v5.25a42.39,42.39,0,0,0,6.25,22.54,48.89,48.89,0,0,0,16.46,16.61,41.82,41.82,0,0,0,22.34,6.3h114.36a42.52,42.52,0,0,0,22.71-6.3,47.45,47.45,0,0,0,16.29-16.61,43.61,43.61,0,0,0,6.08-22.54V185.9a44.37,44.37,0,0,0-6.08-22.92A45.57,45.57,0,0,0,1338,146.52Z"/><path class="cls-1" d="M1426.11,220.91a8.14,8.14,0,0,1-2.51-5.91V0h-36.12V216a41.29,41.29,0,0,0,6,21.77,47.17,47.17,0,0,0,15.89,16,40.4,40.4,0,0,0,21.58,6.07h36.14V223.45H1432A8,8,0,0,1,1426.11,220.91Z"/><path class="cls-1" d="M1655.15,64.86v150.2a8.11,8.11,0,0,1-2.51,5.9,8,8,0,0,1-5.86,2.54H1538.39a8,8,0,0,1-5.86-2.54,8.13,8.13,0,0,1-2.52-5.9V64.86h-36.14v151.2a42.16,42.16,0,0,0,5.86,21.77,45.18,45.18,0,0,0,15.89,16,41.18,41.18,0,0,0,21.75,6.08h117.76v29.7a8.13,8.13,0,0,1-2.52,5.91,8,8,0,0,1-5.85,2.54H1528v36.78h119.76a41.89,41.89,0,0,0,21.92-5.91,44.17,44.17,0,0,0,15.72-15.86,42.78,42.78,0,0,0,5.86-22.11V64.86Z"/><rect class="cls-1" x="744.48" y="64.89" width="125.59" height="36.44"/><rect class="cls-1" x="870.07" y="101.35" width="37.1" height="121.92"/><rect class="cls-1" x="521.43" y="64.89" width="36.11" height="36.44"/><rect class="cls-1" x="557.6" y="64.89" width="36.11" height="36.44"/><rect class="cls-1" x="707.37" y="101.35" width="37.1" height="121.98"/><rect class="cls-1" x="744.48" y="223.39" width="125.59" height="37.38"/><polygon class="cls-1" points="295.73 260.65 297.06 260.65 331.87 260.65 387.83 260.65 387.83 238.74 421.83 238.74 421.83 202.3 385.71 202.3 385.71 223.39 331.87 223.39 297.06 223.39 295.73 223.39 260.94 223.39 260.94 260.65 295.73 260.65"/><path class="cls-1" d="M485.29,64.89H449.17v41.26h.06c0,.45-.06.88-.06,1.34V259.37h36.12V137.79H521.4V101.35H485.29Z"/></g></g></svg>