<svg xmlns="http://www.w3.org/2000/svg" viewBox="0 0 1694.73 332.58"><defs><style>.cls-1{fill:#0d7369;}</style></defs><title>1Asset 1</title><g id="Layer_2" data-name="Layer 2"><g id="Layer_1-2" data-name="Layer 1"><polygon class="cls-1" points="1270.77 100.66 1308.29 100.66 1308.29 120.69 1345.78 120.69 1345.78 83.17 1308.29 83.17 1308.29 64.41 1270.77 64.41 1233.28 64.41 1195.76 64.41 1195.76 100.66 1233.28 100.66 1270.77 100.66"/><rect class="cls-1" x="1158.27" y="100.66" width="37.52" height="38.79"/><path class="cls-1" d="M176.15,70.48a41.29,41.29,0,0,0-22-6H43.58a40.64,40.64,0,0,0-21.62,6A47,47,0,0,0,6,86.4,40.72,40.72,0,0,0,0,108v28.16a41.35,41.35,0,0,0,6,22A45.55,45.55,0,0,0,22,173.91a41.59,41.59,0,0,0,21.62,5.87H153.2a7.52,7.52,0,0,1,5.69,2.52,8.34,8.34,0,0,1,2.35,5.87v26.15a8.34,8.34,0,0,1-2.35,5.87,7.52,7.52,0,0,1-5.69,2.52H44.58a8.61,8.61,0,0,1-8.39-8.39v-4H0v5a40.75,40.75,0,0,0,6,21.63A47,47,0,0,0,22,252.86a40.64,40.64,0,0,0,21.62,6H154.19a41.29,41.29,0,0,0,22-6,45.58,45.58,0,0,0,15.76-15.92,41.61,41.61,0,0,0,5.86-21.63V187.15a42.31,42.31,0,0,0-5.86-22,44.21,44.21,0,0,0-15.76-15.75,42.26,42.26,0,0,0-22-5.87H44.58a8.61,8.61,0,0,1-8.39-8.39V109a8.61,8.61,0,0,1,8.39-8.39H153.2a7.52,7.52,0,0,1,5.69,2.52,8.34,8.34,0,0,1,2.35,5.87v4h36.53v-5a41.67,41.67,0,0,0-5.86-21.63A45.83,45.83,0,0,0,176.15,70.48Z"/><path class="cls-1" d="M401.41,70.48a41.29,41.29,0,0,0-22-6H268.84a40.69,40.69,0,0,0-21.62,6A47,47,0,0,0,231.3,86.4a40.72,40.72,0,0,0-6,21.63v113.8h36.19V179.72H423V108a41.69,41.69,0,0,0-5.86-21.63A46,46,0,0,0,401.41,70.48ZM386.5,145.91h-125V109.05a8.61,8.61,0,0,1,8.38-8.39H378.48a7.52,7.52,0,0,1,5.7,2.52,8.34,8.34,0,0,1,2.35,5.87v36.86Z"/><rect class="cls-1" x="645.46" y="0.77" width="36.19" height="36.22"/><polygon class="cls-1" points="681.67 64.44 645.46 64.44 645.46 64.44 622.02 64.44 622.02 100.66 645.46 100.66 645.46 258.87 681.67 258.87 681.67 100.66 681.73 100.66 681.73 64.44 681.67 64.44"/><path class="cls-1" d="M1095.16,214.24a7.93,7.93,0,0,1-2.53,5.86,8,8,0,0,1-5.86,2.52H978.15a7.86,7.86,0,0,1-2.55-.39,8.35,8.35,0,0,1-3.32-2.1V64.41H936.07V221.77h36.21v37.07c63.25.23,108.93,0,115.48,0a42.52,42.52,0,0,0,14.45-2.44,39.81,39.81,0,0,0,7.51-3.6,45.75,45.75,0,0,0,15.76-15.92,41.58,41.58,0,0,0,5.86-21.62V64.41h-36.21V214.24Z"/><path class="cls-1" d="M1340.76,145.52a43.68,43.68,0,0,0-22.75-6.07H1195.78V177H1317a7.75,7.75,0,0,1,5.89,2.61,8.63,8.63,0,0,1,2.44,6.06v27.09a8.58,8.58,0,0,1-2.44,6.07,7.8,7.8,0,0,1-5.89,2.61H1204.43a8.9,8.9,0,0,1-8.67-8.68v-4.16h-37.52v5.21a41.88,41.88,0,0,0,6.26,22.39A48.81,48.81,0,0,0,1181,252.66a42.14,42.14,0,0,0,22.39,6.27H1318a42.81,42.81,0,0,0,22.75-6.27,47.3,47.3,0,0,0,16.33-16.49,43.08,43.08,0,0,0,6.09-22.39V184.62a43.79,43.79,0,0,0-6.09-22.75A45.53,45.53,0,0,0,1340.76,145.52Z"/><path class="cls-1" d="M1429,219.39a8,8,0,0,1-2.53-5.86V0h-36.18V214.55a40.77,40.77,0,0,0,6,21.62,47.23,47.23,0,0,0,15.93,15.93,40.77,40.77,0,0,0,21.62,6h36.22V221.92h-35.2A8,8,0,0,1,1429,219.39Z"/><path class="cls-1" d="M1658.55,64.41V213.58a8.63,8.63,0,0,1-8.39,8.39H1541.54a8.61,8.61,0,0,1-8.39-8.39V64.41h-36.22V214.58a41.64,41.64,0,0,0,5.87,21.62,45.07,45.07,0,0,0,15.93,15.92,41.56,41.56,0,0,0,21.79,6h118v29.5a8.61,8.61,0,0,1-8.39,8.39h-119v36.53h120a42.26,42.26,0,0,0,22-5.87A44.08,44.08,0,0,0,1688.87,311a42.25,42.25,0,0,0,5.86-22V64.41Z"/><rect class="cls-1" x="746" y="64.44" width="125.85" height="36.19"/><rect class="cls-1" x="871.82" y="100.66" width="37.18" height="121.09"/><rect class="cls-1" x="522.5" y="64.44" width="36.19" height="36.19"/><rect class="cls-1" x="558.74" y="64.44" width="36.19" height="36.19"/><rect class="cls-1" x="708.82" y="100.66" width="37.18" height="121.15"/><rect class="cls-1" x="746" y="221.86" width="125.85" height="37.12"/><polygon class="cls-1" points="296.33 258.87 297.66 258.87 332.55 258.87 388.63 258.87 388.63 237.1 422.69 237.1 422.69 200.92 386.5 200.92 386.5 221.86 332.55 221.86 297.66 221.86 296.33 221.86 261.48 221.86 261.48 258.87 296.33 258.87"/><path class="cls-1" d="M486.28,64.44H450.09v41h.06c0,.45-.06.88-.06,1.33V257.59h36.19V136.85h36.19V100.66H486.28Z"/></g></g></svg>