<svg id="Layer_1" data-name="Layer 1" xmlns="http://www.w3.org/2000/svg" viewBox="0 0 1000 161"><defs><style>.cls-1{fill:#f2f2f2;}</style></defs><title>1Artboard 1</title><path class="cls-1" d="M89.65,137.21c-25,0-44.51-12.41-45.33-35.91H74.43c.83,8.94,6.45,13.24,14.4,13.24,8.27,0,13.56-4.13,13.56-10.92,0-21.51-58.07-9.93-57.74-51.13,0-22,18-34.25,42.36-34.25,25.31,0,42.36,12.58,43.51,34.75H99.91c-.49-7.45-5.79-11.92-13.4-12.08C79.73,40.74,74.6,44.22,74.6,51.5c0,20.19,57.41,11.09,57.41,50C132,121,116.79,137.21,89.65,137.21Z"/><path class="cls-1" d="M220.54,42.56H177.68v23.5h37.9V87.9h-37.9v25.48h42.86v22.67H149.39V19.9h71.15Z"/><path class="cls-1" d="M286.4,19.9c28.46,0,42.69,16.38,42.69,36.56,0,14.56-7.95,28.3-25.82,33.59l26.81,46H298.14L274,92.2H267.2v43.85H238.91V19.9Zm-1.66,23.49H267.2V72.18h17.54c10.59,0,15.56-5.46,15.56-14.56C300.3,49,295.33,43.39,284.74,43.39Z"/><path class="cls-1" d="M346.79,19.9h28.3V136.05h-28.3Z"/><path class="cls-1" d="M450.54,137.21c-32.92,0-59.73-24.65-59.73-59.57s26.81-59.4,59.73-59.4c33.1,0,59.41,24.49,59.41,59.4S483.47,137.21,450.54,137.21Zm0-25.81c18.54,0,30.62-13.4,30.62-33.76,0-20.68-12.08-33.75-30.62-33.75-18.86,0-30.77,13.07-30.77,33.75C419.77,98,431.68,111.4,450.54,111.4Z"/><path class="cls-1" d="M525.17,19.9h28.3V89.39c0,13.73,6.78,21.68,20.18,21.68s20.52-7.95,20.52-21.68V19.9h28.3V89.23c0,32.1-22.51,48-49.31,48-27,0-48-15.88-48-48Z"/><path class="cls-1" d="M684.36,137.21c-25,0-44.52-12.41-45.34-35.91h30.11c.83,8.94,6.45,13.24,14.4,13.24,8.27,0,13.57-4.13,13.57-10.92,0-21.51-58.08-9.93-57.75-51.13,0-22,18-34.25,42.36-34.25,25.31,0,42.36,12.58,43.52,34.75H694.61c-.49-7.45-5.79-11.92-13.4-12.08-6.78-.17-11.91,3.31-11.91,10.59,0,20.19,57.41,11.09,57.41,50C726.71,121,711.49,137.21,684.36,137.21Z"/><path class="cls-1" d="M772.39,19.9v94.31h37.06v21.84H744.09V19.9Z"/><path class="cls-1" d="M813.92,19.9H846l22.5,48.64L890.86,19.9h31.77L882.42,97.66v38.39H854.13V97.66Z"/><path class="cls-1" d="M947.29,137.38c-10.1,0-16.88-6.79-16.88-15.23,0-8.77,6.78-15.55,16.88-15.55,9.93,0,16.71,6.78,16.71,15.55C964,130.59,957.22,137.38,947.29,137.38Z"/></svg>